<svg xmlns="http://www.w3.org/2000/svg" viewBox="0 0 1000 1000"><path fill="fff" d="M984 122.3C946.6 84.5 911.5 42 868 11c-40-8.3-59.2 35-86.7 55 46.5 54 100.6 101.6 150.5 152.6 22.6-27 76.2-54.5 52.6-96.3zM959.4 326c-31.7 31.7-64.5 62.7-95 95.7-1 127.5.2 255-.5 382.6-.6 47-41.8 88.7-88.8 90.3-193.4.8-387 .8-580.4 0-52.2-1.3-94-51.3-90-102.6V238.5c-4-51 38-100.3 89.7-102 128-1.8 256.3 0 384.3-1 33.2-30 64-63 95.7-94.5-170.6 0-341-1-511.6.5-79.6 1.4-151 71-152.4 151-.2 215.2-.8 430.3.4 645.5.3 77.5 66 144.7 142.4 152h670.3c72.3-12.7 134.3-75.8 135.2-151 2.2-171 .5-342 .8-513zm-51-83.8c-50.3-50.5-101-100.7-151.7-150.7C645.4 202 534 312 423.4 423c50 50.4 100.4 100.6 151.3 150.3C686 463 797.2 352.6 908.2 242.3zm-567 412.4c68-18.5 104.3-30.2 172.4-48.5 18.2-5.7 30.3-9.2 39.7-13-48.2-45.8-103.6-102.4-151.7-148.7-20.3 70-40.3 140.2-60.5 210.3z"/></svg>